<svg id="final" xmlns="http://www.w3.org/2000/svg" xmlns:xlink="http://www.w3.org/1999/xlink" viewBox="0 0 510 338.44"><defs><style>.cls-1{fill:url(#linear-gradient);}.cls-2{fill:url(#linear-gradient-2);}.cls-3{fill:#e6e6e6;}.cls-4{fill:#4d4d4d;}.cls-5{fill:#fff;}.cls-6{fill:#fb7709;}.cls-7{fill:#d66109;}.cls-8{fill:#f2a951;}</style><linearGradient id="linear-gradient" x1="318.51" y1="194.84" x2="318.51" y2="281.67" gradientUnits="userSpaceOnUse"><stop offset="0.16" stop-color="#4d4d4d"/><stop offset="0.35" stop-color="#494949"/><stop offset="0.54" stop-color="#3c3c3c"/><stop offset="0.74" stop-color="#272727"/><stop offset="0.94" stop-color="#0a0a0a"/><stop offset="1"/></linearGradient><linearGradient id="linear-gradient-2" x1="318.73" y1="254.95" x2="318.73" y2="515.72" gradientUnits="userSpaceOnUse"><stop offset="0" stop-color="#4d4d4d"/><stop offset="0.47" stop-color="#4b4b4b"/><stop offset="0.64" stop-color="#444"/><stop offset="0.77" stop-color="#393939"/><stop offset="0.86" stop-color="#282828"/><stop offset="0.95" stop-color="#121212"/><stop offset="1"/></linearGradient></defs><title>logo</title><path class="cls-1" d="M516.18,281c0-1.56.11-3.17.13-4.74,0-.89.07-1.78.05-2.67-.06-2.39-.21-4.78-.22-7.17,0-5.93.11-11.85,0-17.77a17.7,17.7,0,0,0-1-4.08,11.66,11.66,0,0,1-.53-1.68c-.3-2.88-1.9-4.63-3.44-6.31-1.34-1.47-1.88-5.27-4.7-3.15,0,0-.1,0-.19-.05-.2-.41-.41-.87-.61-1.3l-1.09.27c-.19-.69-.36-1.26-.49-1.74-2.3-1.5-12-2.25-16.35-1.35a.6.6,0,0,0-.08.08H484.5c0-.06,0-.12,0-.18H479c-11.22,0-22.44-.08-33.66-.06a2,2,0,0,0-.82.24H439c-3.44-.1-6.89-.19-10.33-.22a14.64,14.64,0,0,0-2.18.22h-3.45l-.19-.23H408.8c-4.73,0-9.46-.05-14.18,0a2.1,2.1,0,0,0-.85.24h-1.9a6,6,0,0,0-1.31-.26c-2.44,0-4.88.17-7.32.26h-5.05c-2.13-.08-4.25-.19-6.38-.24a2.65,2.65,0,0,0-.7.24h-4.85c-6.82-.38-21.07-.51-24.54,0h-2.1a2.48,2.48,0,0,0-1.86-.22,12.81,12.81,0,0,1-2.7.14c-9.43,0-18.87,0-28.3,0-.57,0-1.13.07-1.7.12H289.65c0-1.89.08-3.78.12-5.67,0-.78,0-1.55,0-2.32,0-1.63-.07-3.25-.08-4.87s0-3.35,0-5-.09-3.26.06-4.89a1.73,1.73,0,0,0-.87-1.7c-.17-.12-.32-.26-.58-.47l1.33.06-1.07-.58,1-.45-.39-1.87-.29,0,.52-.34c-1.64-1.76-3-3.63-5.67-4.79l-.72.3-4-1.23c-.06-.18-.11-.34-.15-.44l-1.95.13a.88.88,0,0,0,0-.17l-.41.32c-1.83-.14-3.4-.35-5-.37-3.43,0-6.87,0-10.3,0-1.37,0-2.83-.16-4,.6-1.36-.2-2.69-.48-4-.6s-2.76-.09-4.14-.11c-1,0-2.06,0-3.09,0-1.44,0-2.89.09-4.32,0a4.83,4.83,0,0,0-3.27.85l-5.14-.4c0-.13-.08-.29-.14-.51-1.41,0-2.79-.06-4.15,0a9,9,0,0,0-1.78.52,5.3,5.3,0,0,1-1.62.3c-1.11-.13-2.18-.4-3.12-.58a7.45,7.45,0,0,1-5.6.33c-3.36.35-6.48.32-8.71-.44l-2,.22c-8.32-.82-16.61,0-24.8-.43-1.58,1.09-1.81,1.14-3.23.66a4.36,4.36,0,0,1-3.23-.13,5.69,5.69,0,0,0-3.15-.41,25.55,25.55,0,0,1-3.5,0c-.49,0-1,0-1.48,0-1.33,0-2.66.11-4,.11-3.29,0-6.58,0-9.87,0a10.12,10.12,0,0,0-2.26.52,8.08,8.08,0,0,1-.93.26,6.09,6.09,0,0,0-3.51,1.72c-.82.67-2.93.94-1.75,2.35,0,0,0,.05,0,.1l-.72.3c.06.21.1.38.15.54l-1,.25c-.83,1.15-1.25,6-.75,8.18l1.24,1.07c-.07.16-.11.32-.18.47l-1.11.08v3.5a23.49,23.49,0,0,0-.63,5.2v9.56c-4.25.1-8.42.56-12.3,3.74-3,2.44-4.89,5.81-6.72,9.41a8.16,8.16,0,0,0-.3,2.19c-.37,2.48-.76,5-1.15,7.45l-.31-.1V281Z" transform="translate(-70 -180.78)"/><path class="cls-2" d="M538.51,340.88a15.38,15.38,0,0,0-2.49-7.34c-.15-.2-.06-.61-.09-1l1.43.37c.38-1.88.72-3.59,1.07-5.31l.18.05c-.05-.94-.09-1.88-.14-2.93-1.6-1.53-1.39-3.35.74-5V286.94l-2.7-1.26-.24-.83.47-8.62a23.15,23.15,0,0,0-.43-4.27,2.42,2.42,0,0,1,1.83-1.27c-.08.81-.15,1.61-.23,2.4l.65.05a8.31,8.31,0,0,0,0-2.5c-1.39-3.93-2.71-7.71-5.64-10.81-3.63-3.84-7.51-6.1-12.33-6.37-.69,0-1.39,0-2.09-.06a23.2,23.2,0,0,0-5.16-.62H126.45a23.14,23.14,0,0,0-7,1.2c0-.19,0-.34,0-.58l-.48.73c-.42.14-.86.23-1.26.39l-.54-1-4.19.7.06.52-.76-.93c-3.92,3-8.1,5.36-10.67,10.21l.65,1.28c-.87,2.27-1.81,4.72-2.74,7.13l-1,.28c.1,1.29.19,2.39.28,3.5l-.38.05.73.73c-.32,3.29-.79,6.12-.83,9-.1,6.17,0,12.36.07,18.53,0,2.47-.35,5.1,1.34,7.16-.46,2.44-1.07,4.83-1.33,7.27s-.21,5-.25,7.45c0,1.86,0,3.71,0,5.56,0,2.59.21,5.19.08,7.77a7.4,7.4,0,0,0,1.9,5.88c-.28,2.92-.59,6-.9,9.27l-1.14.24c0,2.55-.12,5,.06,7.48.08,1.1.81,2.12,1.16,3.21a7.41,7.41,0,0,1,.67,2.9,55.54,55.54,0,0,1-1.3,5.61c1.81,3.51,2.23,6.79.75,10.1.77,6,.72,11.65-1,15.66l.49,3.51c-1.83,15-.06,29.92-1,44.65,2.43,2.84,2.53,3.25,1.48,5.82a6.47,6.47,0,0,1-.29,5.8,8.45,8.45,0,0,0-.93,5.68,35.71,35.71,0,0,1,0,6.29c0,.89-.07,1.78,0,2.67.06,2.39.23,4.78.24,7.18,0,5.92-.12,11.84,0,17.77a16.22,16.22,0,0,0,1.14,4.07,9.94,9.94,0,0,1,.6,1.68c.33,2.88,2.12,4.63,3.82,6.31,1.5,1.48,2.1,5.27,5.25,3.15,0,0,.1,0,.21.05l.68,1.3,1.21-.27.55,1.74c2.57,1.5,13.39,2.25,18.22,1.35l3.34-3.11c.11,1.32.19,2.25.27,3.21h6.12c12.51,0,25,.08,37.51.06a7.13,7.13,0,0,0,2.17-.76,14.91,14.91,0,0,0,2.43.48c4.64.13,9.28.23,13.92.26a38.23,38.23,0,0,0,4-.36l1.08-1.14,1.38,1.51H218.1c5.26,0,10.53,0,15.8,0a4.27,4.27,0,0,0,1.52-.5,17.52,17.52,0,0,0,3,.52c3.69-.07,7.38-.34,11.06-.35,3.28,0,6.55.26,9.83.33a8.51,8.51,0,0,0,2.1-.63c.94.69,31.72,1.15,32.34.17l-1.09-.79,1.06-.82a2.85,2.85,0,0,0,3.54,2.05,15.8,15.8,0,0,1,3-.14c10.51,0,21,0,31.53,0,1.68,0,3.36-.2,5-.31l1-1.38c.12.83.19,1.3.22,1.53h20.77l.48-1.85,1.51,2h10.09c.22-1,.39-1.8.56-2.61l.41,0c.15.66.3,1.33.56,2.46l.91-2.57c.21,1.18.35,2,.47,2.67h13.8l2.17-2.36,2,2.43h1.6c.3-.6.55-1.11.83-1.69,1.47.59,2.83,1.58,4.21,1.63,5.45.18,10.91.07,16.26.07l1.59-1.69.8,1.39,2.81-1-.58-1.68c2.55-.64,2.24,1.31,2.29,2.8h10.9l1.11-.94c.25.5.44.87.7,1.37l4.58-.62c5.37.91,10.86.41,16.31,0l3.43.52,1.61-3.21,1.26,1.71.63-1.3,2,1.76c.25-1.14.49-2.25.76-3.47h1.3l6.48,4.08c.5-1.37,1-2.69,1.48-4.08H478l1.45,2.9c-.22.3-.5.67-.8,1l-1.4-1-.39,1.27c2.79.25,5.53,1,7-2.42l1.89.57.61,1.87,2.32.18,1.05-1.1.05.59,2.74.24c.07-.87.12-1.45.17-2.15,1.35,2.23,3.27,2.44,5.21,2.45,5.14,0,10.29.08,15.44,0,5.64-.06,11.21,0,16.34-3.8,3.31-2.43,5.44-5.81,7.49-9.41a7.41,7.41,0,0,0,.33-2.19q.63-3.72,1.28-7.44l.35.1V451.89l-1.41-.24,1.23-2.1c.09-1.83.22-3.35.23-4.86q.07-18.72.1-37.43c0-8.46.13-16.93,0-25.39C539,368.21,540.19,354.52,538.51,340.88Z" transform="translate(-70 -180.78)"/><polygon class="cls-3" points="434.37 199.38 63.08 199.38 63.74 127.32 433.71 127.32 434.37 199.38"/><path class="cls-4" d="M152.6,331.5h10.22a19.61,19.61,0,0,1,5.27.53,9.28,9.28,0,0,1,4.18,2.55,12.1,12.1,0,0,1,2.64,4.48,20.33,20.33,0,0,1,.91,6.55,18.36,18.36,0,0,1-.85,5.89,12.14,12.14,0,0,1-3,4.9,9.9,9.9,0,0,1-3.93,2.21,16.92,16.92,0,0,1-4.95.58H152.6Zm5.59,4.68v18.35h4.18a14.91,14.91,0,0,0,3.38-.27,5.11,5.11,0,0,0,2.26-1.15,5.94,5.94,0,0,0,1.46-2.67,18,18,0,0,0,.57-5.08,16.47,16.47,0,0,0-.57-4.93,6.38,6.38,0,0,0-1.59-2.68,5.28,5.28,0,0,0-2.58-1.3,25,25,0,0,0-4.6-.27Z" transform="translate(-70 -180.78)"/><path class="cls-4" d="M179.43,345.52a17.71,17.71,0,0,1,1.26-7.11,13.18,13.18,0,0,1,2.58-3.8,10.74,10.74,0,0,1,3.58-2.49,15.25,15.25,0,0,1,6-1.09,13,13,0,0,1,9.8,3.79q3.67,3.8,3.67,10.56t-3.65,10.5a12.92,12.92,0,0,1-9.74,3.79q-6.18,0-9.83-3.77T179.43,345.52Zm5.76-.19q0,4.69,2.17,7.13a7.47,7.47,0,0,0,11,0c1.42-1.61,2.14-4,2.14-7.23s-.7-5.54-2.09-7.1a7.74,7.74,0,0,0-11.12,0Q185.18,340.55,185.19,345.33Z" transform="translate(-70 -180.78)"/><path class="cls-4" d="M228.38,349l5.42,1.72a12.15,12.15,0,0,1-4.15,6.73,13,13,0,0,1-16.43-1.56q-3.54-3.78-3.55-10.31,0-6.91,3.57-10.74a12.24,12.24,0,0,1,9.39-3.82,11.54,11.54,0,0,1,8.26,3,10.88,10.88,0,0,1,2.83,5.1l-5.53,1.32a5.71,5.71,0,0,0-5.84-4.64,6.29,6.29,0,0,0-5,2.21c-1.28,1.47-1.92,3.86-1.92,7.15,0,3.51.63,6,1.89,7.49a6.16,6.16,0,0,0,4.92,2.23,5.62,5.62,0,0,0,3.83-1.42A8.28,8.28,0,0,0,228.38,349Z" transform="translate(-70 -180.78)"/><path class="cls-4" d="M238.56,331.5h5.59v15a30.87,30.87,0,0,0,.21,4.63,4.51,4.51,0,0,0,1.71,2.73,6,6,0,0,0,3.69,1,5.63,5.63,0,0,0,3.59-1,3.85,3.85,0,0,0,1.46-2.39,31.78,31.78,0,0,0,.24-4.7V331.5h5.59V346a37.64,37.64,0,0,1-.45,7,7.86,7.86,0,0,1-1.67,3.48,8.54,8.54,0,0,1-3.26,2.25,14.19,14.19,0,0,1-5.33.85,15.39,15.39,0,0,1-6-.92,8.77,8.77,0,0,1-3.24-2.38,7.66,7.66,0,0,1-1.56-3.07,33.31,33.31,0,0,1-.55-7Z" transform="translate(-70 -180.78)"/><path class="cls-4" d="M266.46,359.19V331.5h8.37l5,18.89,5-18.89h8.39v27.69H288v-21.8l-5.5,21.8h-5.38l-5.48-21.8v21.8Z" transform="translate(-70 -180.78)"/><path class="cls-4" d="M298.77,359.19V331.5H319.3v4.68H304.36v6.14h13.9V347h-13.9v7.54h15.47v4.66Z" transform="translate(-70 -180.78)"/><path class="cls-4" d="M324.63,359.19V331.5h5.44L341.41,350V331.5h5.19v27.69H341l-11.17-18.06v18.06Z" transform="translate(-70 -180.78)"/><path class="cls-4" d="M358.75,359.19v-23h-8.22V331.5h22v4.68h-8.2v23Z" transform="translate(-70 -180.78)"/><path class="cls-4" d="M398.25,359.19h-6.08l-2.42-6.29H378.68l-2.29,6.29h-5.93l10.79-27.69h5.91ZM388,348.24,384.14,338l-3.74,10.28Z" transform="translate(-70 -180.78)"/><path class="cls-4" d="M404.58,359.19v-23h-8.22V331.5h22v4.68h-8.2v23Z" transform="translate(-70 -180.78)"/><path class="cls-4" d="M421.81,359.19V331.5h5.59v27.69Z" transform="translate(-70 -180.78)"/><path class="cls-4" d="M431.59,345.52a17.7,17.7,0,0,1,1.27-7.11,13.18,13.18,0,0,1,2.58-3.8,10.74,10.74,0,0,1,3.58-2.49,15.18,15.18,0,0,1,6-1.09,13,13,0,0,1,9.79,3.79q3.68,3.8,3.68,10.56t-3.65,10.5a14.55,14.55,0,0,1-19.57,0Q431.6,352.12,431.59,345.52Zm5.77-.19q0,4.69,2.17,7.13a7.46,7.46,0,0,0,11,0q2.14-2.42,2.15-7.23t-2.09-7.1a7.74,7.74,0,0,0-11.12,0Q437.36,340.55,437.36,345.33Z" transform="translate(-70 -180.78)"/><path class="cls-4" d="M462.88,359.19V331.5h5.44L479.66,350V331.5h5.19v27.69h-5.61l-11.16-18.06v18.06Z" transform="translate(-70 -180.78)"/><rect class="cls-5" x="188.81" y="412.17" width="293.91" height="35.07" transform="translate(47.76 -250.93) rotate(14.44)"/><path class="cls-6" d="M227.49,410.11a7.39,7.39,0,0,0,2-1.48,9.79,9.79,0,0,0,1.62-2.29,11.22,11.22,0,0,0,1-2.58,10.93,10.93,0,0,0,.31-2.65,10,10,0,0,0-.35-2.61,7,7,0,0,0-1-2.2,3.51,3.51,0,0,0-3.08-1.56,5.69,5.69,0,0,0-2.31.45,7.85,7.85,0,0,0-2.53,1.67,7.47,7.47,0,0,0-1.92,3.52,9.2,9.2,0,0,0-.49,4.1,8,8,0,0,0,1,3,6.12,6.12,0,0,0,1.81,2,6.48,6.48,0,0,0,2,.95A2.78,2.78,0,0,0,227.49,410.11ZM225,397.26a7,7,0,0,0-1.45,1.76,6.32,6.32,0,0,0-.84,2.65,10.15,10.15,0,0,0-.3,2.54,5.59,5.59,0,0,0,.25,1.6,3.57,3.57,0,0,0,.5,1l.47.64.71,1.06c.22.33.28.55.16.66s-.27,0-.52-.17a5.67,5.67,0,0,1-.83-.59,4.53,4.53,0,0,1-.83-.94,4.2,4.2,0,0,1-.55-1.26,12.26,12.26,0,0,1,0-3.53,9.49,9.49,0,0,1,1.26-3.9,6,6,0,0,1,1.17-1.4,5.8,5.8,0,0,1,1.3-.89,6.52,6.52,0,0,1,1.38-.53A10.77,10.77,0,0,0,225,397.26Z" transform="translate(-70 -180.78)"/><path class="cls-6" d="M305.8,411.2l.1.11c.06.11.2.14.41.1h.09s-.06,0-.08,0A2.44,2.44,0,0,1,305.8,411.2Z" transform="translate(-70 -180.78)"/><path class="cls-6" d="M306,410.8l.37.11A.68.68,0,0,0,306,410.8Z" transform="translate(-70 -180.78)"/><path class="cls-6" d="M417.74,457.48c.16.06.4.17.72.32a2.32,2.32,0,0,0,1.19.19,4.24,4.24,0,0,0,1.69-.58,8.51,8.51,0,0,0,2.2-1.88,8.16,8.16,0,0,0,1.69-3.11,12.18,12.18,0,0,0,.48-3.29,14.83,14.83,0,0,0-.28-3,14.5,14.5,0,0,0-.55-2.06A3.7,3.7,0,0,0,423.8,443a4.3,4.3,0,0,0-1.37-.6,7.1,7.1,0,0,0-1.39-.21,6.22,6.22,0,0,0-.89,0,3.08,3.08,0,0,1-1.68-.55,9.88,9.88,0,0,1-1.11-.75l-.18.74c-.06.22-.1.43-.14.63s-.08.42-.13.64-.21.86-.41,1.76-.42,1.89-.63,3-.41,2.09-.61,3-.3,1.45-.34,1.58a6.41,6.41,0,0,0-.11,1.4,8.56,8.56,0,0,1-.05,1.37c0,.35,0,.54-.1.56a1.08,1.08,0,0,0-.29.34q-.31.36-.18.54a3.29,3.29,0,0,0,.44.48c.16.18.36.19.6,0a.28.28,0,0,0,.23-.21,8.29,8.29,0,0,0,.88.26,4,4,0,0,1,.74.25A5.9,5.9,0,0,0,417.74,457.48Zm-1.69-3.94c-.24.82-.39,1.21-.44,1.16a8.17,8.17,0,0,1,.35-1.85c.29-1.23.6-2.58.93-4.06.35-1.75.79-3.72,1.32-5.89a.72.72,0,0,1,.56-.08,7.21,7.21,0,0,1,.89.17c.38.1.79.23,1.24.39l-1.92-.25c-.11.32-.21.65-.3,1a5.17,5.17,0,0,0-.3.89c-.08.32-.14.58-.2.8s-.21.85-.47,1.83-.53,2-.84,3S416.3,452.72,416.05,453.54Z" transform="translate(-70 -180.78)"/><path class="cls-6" d="M466.7,469.51c.15.07.39.17.71.33a2.45,2.45,0,0,0,1.19.18,4.32,4.32,0,0,0,1.7-.58,8.45,8.45,0,0,0,2.19-1.88,8,8,0,0,0,1.69-3.11,11.83,11.83,0,0,0,.49-3.29,14.81,14.81,0,0,0-.29-3,13.25,13.25,0,0,0-.55-2.06,3.8,3.8,0,0,0-1.07-1.08,4.4,4.4,0,0,0-1.37-.6,7.2,7.2,0,0,0-1.4-.21,6.07,6.07,0,0,0-.88,0,3,3,0,0,1-1.68-.55,10.25,10.25,0,0,1-1.12-.74l-.18.73c-.05.22-.1.43-.13.64s-.08.42-.14.63-.2.86-.41,1.76-.41,1.9-.62,3-.42,2.09-.61,3-.31,1.44-.34,1.58a5.74,5.74,0,0,0-.11,1.4,8.43,8.43,0,0,1-.06,1.37c0,.34,0,.53-.09.56s-.17.14-.3.33-.26.42-.18.54a3.56,3.56,0,0,0,.45.48c.15.18.36.19.6,0a.28.28,0,0,0,.22-.21c.32.11.62.2.89.27a5.77,5.77,0,0,1,.74.24A4,4,0,0,0,466.7,469.51Zm-1.7-3.94c-.24.82-.39,1.21-.43,1.17a7.44,7.44,0,0,1,.35-1.86q.42-1.85.93-4.05.51-2.64,1.32-5.9a.71.71,0,0,1,.56-.08c.26,0,.56.09.88.17a12.64,12.64,0,0,1,1.25.4l-1.93-.26c-.11.32-.2.65-.29,1a5.2,5.2,0,0,0-.31.89c-.07.32-.14.58-.19.8l-.47,1.83q-.39,1.46-.84,3.06C465.52,463.81,465.25,464.75,465,465.57Z" transform="translate(-70 -180.78)"/><path class="cls-6" d="M196.42,368.2,184.18,418l292,71.77L488.43,440Zm39.44,40.73c-.12-.09-.19-.18-.19-.27a.82.82,0,0,1,0-.33c0-.06.08-.13.22-.21Zm-22.72-19.42c-.71,2.77-1.33,5.26-1.88,7.49l-1.87,7.58a.71.71,0,0,1-.27.41.63.63,0,0,0-.24.29,1.16,1.16,0,0,1-.11.27.54.54,0,0,0-.08.15l0,.17,1.92-7.83.74-3c.24-1,.48-1.84.73-2.6s.45-1.41.62-1.93A2.54,2.54,0,0,1,213.14,389.51Zm-11.9-4.87a4.68,4.68,0,0,1,.39.38,5.25,5.25,0,0,0,.41.42,2.31,2.31,0,0,1,.46.94c.14.46.3,1,.45,1.58s.32,1.19.46,1.82.3,1.17.45,1.64.29,1,.46,1.71.32,1.35.48,2,.32,1.51.48,2.24a2.67,2.67,0,0,1-.31-.47c-.05-.27-.17-.7-.35-1.29s-.43-1.51-.74-2.73-.65-2.29-1-3.36-.68-2-1-2.79a23.71,23.71,0,0,0-1.09-2.43A1.78,1.78,0,0,1,201.24,384.64Zm-5.15,20.95a1.5,1.5,0,0,1-.41.35c-.15.1-.24.18-.26.27s-.06,0,0-.17.05-.29.12-.33a2.3,2.3,0,0,1,.78-.33l.45-.28A3.31,3.31,0,0,1,196.09,405.59Zm2.81-8.77a4.25,4.25,0,0,1-.05.72,5.06,5.06,0,0,0-.39,1.24c-.18.74-.38,1.54-.59,2.41l-.82,3.34c0-.06,0-.23.1-.54s.13-.69.19-1.18a16.08,16.08,0,0,1,.31-1.7q.21-1,.36-1.92c.25-1.49.55-3.15.88-5a9.39,9.39,0,0,0,.07,1.44C198.93,396.06,198.9,396.44,198.9,396.82ZM199,399l.48-.57v.35Zm7.81,10.09-.48.17a.6.6,0,0,1-.35,0,3.65,3.65,0,0,1-.57,0l-.28-.07,2.26-.4A2.16,2.16,0,0,1,206.83,409.05Zm.66-1.3a.67.67,0,0,1-.55.47,3.2,3.2,0,0,1-.82,0,2.8,2.8,0,0,1-.84-.21,1.61,1.61,0,0,1-.55-.32.85.85,0,0,1-.22-.6c0-.31,0-.62,0-.94s0-.61,0-.88a1.65,1.65,0,0,0,0-.46l-1-2.27a10.4,10.4,0,0,0-.34-1.14c-.21-.62-.45-1.39-.71-2.32s-.55-1.91-.87-3-.62-2-.91-2.9-.53-1.66-.73-2.3-.32-1-.34-1a.36.36,0,0,0-.51-.1,4,4,0,0,1-.71.32,1,1,0,0,0-.29.56,7.43,7.43,0,0,0-.21,1c-.05.42-.11.84-.18,1.25a3.43,3.43,0,0,0,.5-.44c.28-.3.43-.41.47-.32a2.85,2.85,0,0,1-.28,1c-.18.44-.39,1.05-.64,1.83l-.44,1.81q-.28,1.13-.54,2.34c-.17.8-.32,1.52-.46,2.15s-.23,1-.26,1.15a2.79,2.79,0,0,0,.21.91,1.13,1.13,0,0,1,0,.88,3.6,3.6,0,0,1-.63.56,2.58,2.58,0,0,1-.87.45c-.5-.06-.79-.65-.86-1.77a9,9,0,0,1,.35-2l.82-3.31c.28-1.16.57-2.22.84-3.18s.44-1.5.47-1.64a4.8,4.8,0,0,1,.43-1,5.28,5.28,0,0,0,.46-1.16,6,6,0,0,1,.55-1.29,3.33,3.33,0,0,0,.46-1.23,2.11,2.11,0,0,0,0-.47c0-.27-.06-.55-.11-.85a4.51,4.51,0,0,1-.09-.87,2.49,2.49,0,0,1,0-.66,1.64,1.64,0,0,1,1-.52,5.44,5.44,0,0,0,1.12-.33,1.41,1.41,0,0,0,.38-.4c.07-.14.1-.16.07-.05l-.1.43a.58.58,0,0,0,.09.52,3.59,3.59,0,0,1,.34,1.33,5.57,5.57,0,0,0,.4,1.62q.08.22.3,1.32c.15.73.31,1.51.47,2.32s.31,1.59.47,2.32a10.21,10.21,0,0,0,.36,1.43A11.94,11.94,0,0,0,204,398c.23.48.48,1,.75,1.52a.3.3,0,0,1-.21,0,.76.76,0,0,1-.28.06l-.22,0c-.18,0-.27.14-.29.4a7.78,7.78,0,0,0,0,.86,3,3,0,0,0,.08.9q.1.45.3,1.05a1,1,0,0,0,.52.8.79.79,0,0,0,.73-.06,1.34,1.34,0,0,0,.69-.87,8,8,0,0,1,.56-1.24c.06-.22.2-.76.44-1.62s.52-1.79.82-2.79.56-1.92.8-2.8.37-1.44.43-1.69a4.57,4.57,0,0,0,.29-2,5.71,5.71,0,0,1,0-1.5.72.72,0,0,1,.51-.44,3.75,3.75,0,0,1,.66-.14,3.43,3.43,0,0,0,.91-.68c.18-.16.38-.33.6-.5a1.7,1.7,0,0,0,.06.62,1.77,1.77,0,0,1,0,.56.78.78,0,0,0,0,.44,1.53,1.53,0,0,1-.31.83,10.31,10.31,0,0,0-.7,1.52c-.1.32-.27.89-.48,1.72s-.46,1.76-.72,2.83-.54,2.12-.85,3.2-.57,2-.77,2.88a15.53,15.53,0,0,0-.61,3.89A4.1,4.1,0,0,1,207.49,407.75Zm1.12-1a1,1,0,0,1,0,.35c0,.08,0,.18-.07.28s-.09.26-.15.27Zm11.23,2.85a7.59,7.59,0,0,1-1.44-3.81,13.61,13.61,0,0,1,.26-4.3,17.06,17.06,0,0,1,1.44-4.12,12.39,12.39,0,0,1,2.13-3.13,4.45,4.45,0,0,1,2.49-1.53,10.55,10.55,0,0,1,2.81-.24,12,12,0,0,1,2.22.29c.58.14.89.17.91.09-.11-.49,0-.55.43-.17a8.76,8.76,0,0,1,1.34,1.73,14.12,14.12,0,0,1,1.83,6.8,12.66,12.66,0,0,1-.3,2.46,14.17,14.17,0,0,1-.87,2.68,20.83,20.83,0,0,1-1.38,2.6,23.09,23.09,0,0,1-1.53,2.2,6.69,6.69,0,0,1-2,1.44,5.17,5.17,0,0,1-2.62.46,6.89,6.89,0,0,1-2.88-.95A9.77,9.77,0,0,1,219.84,409.57Zm9.71,3.32a12.77,12.77,0,0,1-2.51.78,16.93,16.93,0,0,1-2.88.29,10.62,10.62,0,0,0,1.83-.2,14.65,14.65,0,0,0,1.82-.48,11.7,11.7,0,0,0,2.07-.94,9.12,9.12,0,0,0,2.92-2.65,21.07,21.07,0,0,0,1.63-3.19,8.54,8.54,0,0,0,.58-2c.14-.79.25-1.6.32-2.45s.12-1.66.13-2.45a17.3,17.3,0,0,0-.1-2.13,5.09,5.09,0,0,0-.68-1.89,13.48,13.48,0,0,0-1.25-1.78c-.46-.54-.89-1-1.3-1.42s-.64-.62-.71-.67l-1.39-.86a4.16,4.16,0,0,1,1.17.5,7.31,7.31,0,0,1,1.15.85c.42.36.89.79,1.43,1.3a6.56,6.56,0,0,1,1.16,2.08,14.25,14.25,0,0,1,.65,2.53,19.71,19.71,0,0,1,.24,2.35c0,.72,0,1.22.06,1.51s-.18.95-.35,1.69a17.43,17.43,0,0,1-.75,2.45,29.25,29.25,0,0,1-1.21,2.75,10.7,10.7,0,0,1-1.71,2.45A6.81,6.81,0,0,1,229.55,412.89Zm31.21-10.12a6.78,6.78,0,0,1-.89.43,3,3,0,0,1-.84-.08c-.42-.07-.87-.14-1.36-.2a9.7,9.7,0,0,1-1.34-.25l-.73-.18q-.37-.09-.45.24c0,.08-.17.67-.43,1.75l-.93,3.75q-.51,2.13-1,4.23c-.32,1.41-.56,2.45-.73,3.13a6.73,6.73,0,0,1-.37,1.51,1.76,1.76,0,0,1-.37.64.5.5,0,0,1-.49.23.84.84,0,0,0,.24-.29,2.34,2.34,0,0,0,.32-.74s.07-.29.19-.78.26-1.09.42-1.82.34-1.53.53-2.42.4-1.81.64-2.76q.69-3.15,1.68-7.19c.07-.07.28-.06.62,0l1.18.29a13.79,13.79,0,0,1,1.35.4c.45.15.82.26,1.09.33a2,2,0,0,0,1.48-.24,1.05,1.05,0,0,0,.61-.37A1.37,1.37,0,0,1,260.76,402.77Zm.29-.84a1.3,1.3,0,0,1-1.17.54,4.61,4.61,0,0,0-.88-.05c-.13,0-.3-.08-.5-.33a1.06,1.06,0,0,0-.83-.47c-.37,0-.69-.07-1-.11l-.42.12a2.16,2.16,0,0,1-.58-.1,1.22,1.22,0,0,1-.62-.29,1.31,1.31,0,0,0-.53-.3,1.76,1.76,0,0,0-.27,0l-.27,0-.25-.06-3.5,14.27v1.25c0,.3.05.57.05.82a.52.52,0,0,1-.2.48,2.41,2.41,0,0,1-.84.34,1.33,1.33,0,0,1-.88,0,1.91,1.91,0,0,1-.5-1.08,5.07,5.07,0,0,1,.45-2.61c.2-.56.48-1.44.85-2.64s.72-2.41,1.08-3.61.66-2.3.95-3.33a10.74,10.74,0,0,0,.42-1.93,6.84,6.84,0,0,1,.1-.9,9.32,9.32,0,0,0,.1-1,3.42,3.42,0,0,0-.08-.84.52.52,0,0,0-.37-.42c-.49-.12-.8-.12-.93,0a1.33,1.33,0,0,1-.56.25,1.68,1.68,0,0,1-.5-.08l-.87-.24-.87-.25a.84.84,0,0,1-.49-.28,5.75,5.75,0,0,1-.63-.93,1.68,1.68,0,0,1-.34-1.25,1.82,1.82,0,0,1,.32-.63q.18-.19.63-.09l1.19.36,2.19.67c.8.24,1.57.46,2.3.65s1.23.33,1.5.39l.7.17a3.55,3.55,0,0,0,.62.11,3.51,3.51,0,0,1,.64,0l1.06.26a2.58,2.58,0,0,0,1.06.09,2.89,2.89,0,0,0,.66-.12,2.59,2.59,0,0,1,.93-.1,1.73,1.73,0,0,1,.89.33,1.1,1.1,0,0,1,.41.95A3.3,3.3,0,0,1,261.05,401.93Zm134.27,30.89c-.19,1.25-.37,2.44-.54,3.58-.18,1-.36,1.88-.54,2.74s-.33,1.5-.43,1.91-.23.88-.43,1.58-.38,1.37-.54,2-.45,1.66-.67,2.55a1.05,1.05,0,0,1-.16-.6,4.46,4.46,0,0,1,.45-2.18c.18-.5.44-1.36.76-2.58s.65-2.49.95-3.83.56-2.52.79-3.56S395.3,432.87,395.32,432.82Zm-41.88-10.94c.15.12.33.26.55.41s.43.32.62.48a9.12,9.12,0,0,1,1.5,1.81,10.66,10.66,0,0,1,1.35,2.95,5.75,5.75,0,0,1,.11,2.86A5.52,5.52,0,0,1,357,432c-.11.21-.33.27-.66.19a1.63,1.63,0,0,1-.46-.2.47.47,0,0,0,.36-.09,1.68,1.68,0,0,0,1.16-1.9,11.62,11.62,0,0,0-.41-3.23,7.19,7.19,0,0,0-1-2,11,11,0,0,0-1.36-1.68c-.61-.55-1.24-1.06-1.87-1.54A1.46,1.46,0,0,1,353.44,421.88ZM330,437.51l.22-.89a1,1,0,0,1,0,.34c0,.09,0,.18-.07.29S330.08,437.5,330,437.51Zm4.75-18.1c-.71,2.76-1.33,5.26-1.88,7.49L331,434.48a.69.69,0,0,1-.27.4.69.69,0,0,0-.24.29,1.49,1.49,0,0,1-.11.28.36.36,0,0,0-.08.15l0,.16,1.92-7.82c.25-1,.5-2,.74-3s.48-1.85.73-2.61.45-1.4.62-1.92A2.46,2.46,0,0,1,334.77,419.41Zm-11.9-4.87a3.46,3.46,0,0,1,.39.37c.11.13.25.27.41.43a2.19,2.19,0,0,1,.46.93c.15.47.3,1,.46,1.58s.31,1.2.46,1.82.29,1.18.44,1.64.3,1.05.46,1.72.32,1.35.48,2,.32,1.5.48,2.24a3.27,3.27,0,0,1-.31-.47c-.05-.27-.17-.7-.35-1.3s-.43-1.5-.74-2.73-.65-2.29-1-3.35-.67-2-1-2.8a24.72,24.72,0,0,0-1.09-2.43A1.62,1.62,0,0,1,322.87,414.54ZM303,430c0,.11-.06.21-.08.3s0-.11,0-.16a1.06,1.06,0,0,0-.18-.69,4.41,4.41,0,0,0-.36-.61l-.34-.13a4.76,4.76,0,0,0-.6-.19,2.08,2.08,0,0,1-.54-.19.27.27,0,0,1-.15-.28.51.51,0,0,1,.77-.22,5.68,5.68,0,0,1,1.07.84A1.18,1.18,0,0,1,303,430Zm-2.27-2.3h-.34L303,416.3l-1.18,5.16c-.27,1.32-.53,2.55-.78,3.7a11.36,11.36,0,0,0-.35,1.94,1,1,0,0,0,0,.21c0,.06,0,.1,0,.13A.39.39,0,0,0,300.71,427.68Zm3.42-12.93a3.59,3.59,0,0,1-.81-.48,1.45,1.45,0,0,0-1.06-.26.53.53,0,0,0-.36.39c0,.19-.12.48-.22.89l-2.56,10.44c0,.16-.11.41-.19.75s-.15.68-.21,1-.11.67-.17,1,0,.47.07.5.37,0,.71-.18a1.35,1.35,0,0,1,.81-.19,1.17,1.17,0,0,1,.49.43c.2.25.37.38.52.38a1.16,1.16,0,0,1,1,.52,1,1,0,0,1-.08.93,3.52,3.52,0,0,1-.74,1,1.19,1.19,0,0,1-1.19.33,4,4,0,0,1-1.24-.46l-1.36-.48c-.5-.17-1-.3-1.41-.41s-1.12-.24-1.9-.36-1.21-.26-1.32-.43-.06-.22.1-.41a5.39,5.39,0,0,1,.53-.54,7.38,7.38,0,0,1,.59-.5c.22-.17.38-.24.49-.21a1,1,0,0,1,.6.26.78.78,0,0,0,.63.17.94.94,0,0,0,.74-.44c.16-.26.33-.55.49-.85,0-.14.18-.74.44-1.8s.53-2.23.8-3.52.53-2.49.78-3.61.41-1.86.5-2.21a5.35,5.35,0,0,0,.06-3.23,1.07,1.07,0,0,0-.58-.27c-.3-.07-.62-.16-1-.26a1.86,1.86,0,0,1-.8-.43.63.63,0,0,1,0-.79,1,1,0,0,1,.56-.68,1.58,1.58,0,0,1,.76-.14,3,3,0,0,1,.82.2,4.51,4.51,0,0,0,.68.23l1.16.37a9.48,9.48,0,0,0,1.69.33,2.26,2.26,0,0,0,1.48-.22,2.06,2.06,0,0,1,.61-.39,1.27,1.27,0,0,0,.6-.22.69.69,0,0,1,.3-.09l-5.5-1.51a3.12,3.12,0,0,1,1.31.17,20,20,0,0,1,1.95.63c.8.23,1.68.5,2.61.82.25.14.36.27.34.36s-.13.12-.29.13a2.49,2.49,0,0,0,.36.13.4.4,0,0,1,.32.25,1.16,1.16,0,0,1,.12.59,3.82,3.82,0,0,1-.09.71,5.21,5.21,0,0,1-.38,1l.13-.49c0-.16.08-.34.13-.53s.08-.41.12-.66c0-.44-.27-.71-.78-.82s-.8-.11-.88,0-.18.14-.08.26a1.73,1.73,0,0,0,.44.39,1.43,1.43,0,0,1,.64,1.28.76.76,0,0,1-.38.75,9,9,0,0,1-.84.51A1.05,1.05,0,0,1,304.13,414.75Zm13.59,20.74a1.69,1.69,0,0,1-.41.35c-.15.09-.24.18-.26.26s-.06,0,0-.16.06-.3.12-.34a2.4,2.4,0,0,1,.78-.33l.45-.27A4.37,4.37,0,0,1,317.72,435.49Zm2.81-8.78a4.25,4.25,0,0,1,0,.72,5.22,5.22,0,0,0-.39,1.25l-.59,2.4-.82,3.34c0-.05.05-.23.11-.53s.12-.7.18-1.19a15.94,15.94,0,0,1,.31-1.69q.21-1,.36-1.92c.25-1.5.55-3.16.88-5a9.59,9.59,0,0,0,.07,1.45C320.56,426,320.53,426.34,320.53,426.71Zm.12,2.15.49-.57v.34ZM328.46,439l-.48.16a.6.6,0,0,1-.35,0,3,3,0,0,1-.57,0l-.28-.08,2.26-.39A3.07,3.07,0,0,1,328.46,439Zm.66-1.31a.65.65,0,0,1-.54.47,3.3,3.3,0,0,1-.83,0,3.14,3.14,0,0,1-.84-.21,1.45,1.45,0,0,1-.55-.33.84.84,0,0,1-.22-.59c0-.31,0-.62,0-.94s0-.61,0-.89a2,2,0,0,0,0-.46l-1-2.27a8.89,8.89,0,0,0-.34-1.14c-.21-.61-.45-1.38-.71-2.31s-.55-1.92-.87-3-.62-2-.91-2.9-.53-1.66-.73-2.3-.32-1-.34-1a.36.36,0,0,0-.51-.11,4,4,0,0,1-.71.32,1,1,0,0,0-.28.56,6.09,6.09,0,0,0-.22,1c-.05.42-.1.84-.18,1.26a4.14,4.14,0,0,0,.5-.44c.28-.31.43-.42.47-.32a3,3,0,0,1-.27,1c-.19.45-.4,1.06-.65,1.83-.11.47-.26,1.07-.44,1.82s-.37,1.52-.53,2.33-.33,1.53-.47,2.15-.23,1-.26,1.15a2.84,2.84,0,0,0,.21.92,1.11,1.11,0,0,1,0,.87,3.6,3.6,0,0,1-.63.56,2.64,2.64,0,0,1-.87.46c-.5-.07-.79-.66-.86-1.77a8.72,8.72,0,0,1,.36-2q.38-1.55.81-3.3c.28-1.17.57-2.23.84-3.18s.44-1.5.47-1.64a4.43,4.43,0,0,1,.43-1,5.48,5.48,0,0,0,.46-1.16,5.62,5.62,0,0,1,.55-1.29,3.45,3.45,0,0,0,.46-1.23,2.2,2.2,0,0,0,0-.48c0-.26-.06-.55-.11-.85a4.41,4.41,0,0,1-.09-.86,2.45,2.45,0,0,1,0-.66,1.59,1.59,0,0,1,1-.52,7.14,7.14,0,0,0,1.12-.33,1.44,1.44,0,0,0,.38-.41c.08-.14.1-.15.07,0l-.1.42a.58.58,0,0,0,.09.52,3.66,3.66,0,0,1,.34,1.34,5.92,5.92,0,0,0,.4,1.61c.05.16.15.6.3,1.33s.31,1.5.47,2.32.31,1.59.47,2.32a10.63,10.63,0,0,0,.36,1.43,12.71,12.71,0,0,0,.93,2.17q.35.74.75,1.53s-.1,0-.21,0l-.28.06a.56.56,0,0,0-.22,0c-.18,0-.27.15-.29.4a7.84,7.84,0,0,0,0,.86,3,3,0,0,0,.08.91c.07.29.17.64.31,1a1,1,0,0,0,.51.79.74.74,0,0,0,.73-.06,1.34,1.34,0,0,0,.69-.86,8.17,8.17,0,0,1,.56-1.25c.06-.22.2-.75.45-1.62s.51-1.79.81-2.78.57-1.93.8-2.81.37-1.44.43-1.69a4.55,4.55,0,0,0,.29-2,5.71,5.71,0,0,1,.05-1.5.71.71,0,0,1,.51-.43,3.09,3.09,0,0,1,.67-.14,3.74,3.74,0,0,0,.9-.69l.6-.5a1.49,1.49,0,0,0,.06.62,1.83,1.83,0,0,1,0,.57.8.8,0,0,0,0,.44,1.58,1.58,0,0,1-.31.83,8.71,8.71,0,0,0-.69,1.52c-.11.31-.27.89-.49,1.71s-.46,1.77-.72,2.83-.54,2.13-.85,3.2-.56,2-.77,2.88a15.59,15.59,0,0,0-.61,3.9A4.05,4.05,0,0,1,329.12,437.64Zm12.66-.65a10.86,10.86,0,0,1-.08-6,18.39,18.39,0,0,1,2.45-5.4,5.88,5.88,0,0,1,2-1.87,8.73,8.73,0,0,1,2.08-.83,6,6,0,0,1,2.57-.08,4.9,4.9,0,0,0,1,.11,3.33,3.33,0,0,0,1-.06q.3-.06.3.09c0,.1.09.22.32.36.06.1.25.38.57.83s.68,1,1.08,1.59.75,1.19,1.06,1.77a7.45,7.45,0,0,1,.59,1.38,2.39,2.39,0,0,1-.37,1.66,3.62,3.62,0,0,1-.69.89c-.08.06-.26.06-.56,0a1.06,1.06,0,0,1-.64-.74,1.42,1.42,0,0,1-.15-.88,2.32,2.32,0,0,0-.06-.9,2.77,2.77,0,0,0-.13-.86,4.13,4.13,0,0,0-.36-.82c-.1-.05-.35-.21-.75-.47a10.66,10.66,0,0,0-1.4-.73,12.38,12.38,0,0,0-1.53-.55,3.46,3.46,0,0,0-1.08-.16,9,9,0,0,0-1.18.41,6.43,6.43,0,0,0-1.7,1,8.27,8.27,0,0,0-1.67,1.79,7.29,7.29,0,0,0-1.16,2.78,9.4,9.4,0,0,0,.51,6,6.24,6.24,0,0,0,2.95,3.31,3,3,0,0,0,1.73.24,6.83,6.83,0,0,0,1.65-.46,5.42,5.42,0,0,0,1.24-.74c.34-.27.59-.48.74-.61l.32-.64c.16-.29.32-.6.47-.92s.28-.63.4-.92.21-.45.31-.48a.71.71,0,0,1,.58-.44,2,2,0,0,1,.77,0c.19.05.32.3.38.75a3,3,0,0,1-.09,1.27,6.42,6.42,0,0,0-.55,1.16,8.53,8.53,0,0,1-1,1.84,7.34,7.34,0,0,1-1.71,1.72,4.91,4.91,0,0,1-2.4.88,7,7,0,0,1-4.88-1.52A8.86,8.86,0,0,1,341.78,437Zm2.75-2.13c0,.23,0,.42.06.59a12,12,0,0,1-.17-1.55,11.66,11.66,0,0,1,.12-2.2,8.58,8.58,0,0,1,2.37-4.27,6,6,0,0,1,1.47-.94,2.76,2.76,0,0,1,1.08-.28c.27,0,.43.05.47.12A6,6,0,0,0,348,427a5.64,5.64,0,0,0-2.76,3.47A11.71,11.71,0,0,0,344.53,434.86Zm7.41,8.45a7.61,7.61,0,0,1-2.07.68c-.24.06-.48.09-.71.13l1.46-.48a8.58,8.58,0,0,0,1.9-.94,4.75,4.75,0,0,0,1.73-1.61,11.64,11.64,0,0,0,1.09-2,11.26,11.26,0,0,0,.81-2.22,14.42,14.42,0,0,1-.37,1.51c-.2.44-.43,1-.69,1.58a6.12,6.12,0,0,1-1.26,1.79A5.84,5.84,0,0,1,351.94,443.31Zm20.54,7.15-2-.49a2.46,2.46,0,0,1-1.18-.51l5.81,1.52C374.18,450.83,373.3,450.66,372.48,450.46Zm3.13-.4a1.18,1.18,0,0,0-.5-.25l-1.46-.43c-.88-.26-1.87-.53-2.95-.81s-2.07-.54-3-.79l-1.42-.39a3.58,3.58,0,0,1-.72-.42c-.37-.25-.57-.49-.6-.73s.08-.65.23-1.54.31-1.87.49-2.95.36-2.12.54-3.11.32-1.62.38-1.89.22-.88.43-1.73.45-1.74.71-2.64.5-1.72.7-2.47.29-1.12.3-1.15a1.88,1.88,0,0,0-.07-.67.94.94,0,0,1,.14-.83,2.15,2.15,0,0,1,.75-.53,1,1,0,0,1,1.09.08,1.5,1.5,0,0,1,.39,1.48c-.1.69-.32,1.1-.67,1.22l-1.53,6.23-.54,2.2c-.18.74-.34,1.43-.47,2.07s-.24,1.17-.34,1.58-.15.63-.16.65c-.07.3-.17.82-.28,1.56s-.17,1.16-.2,1.27.11.23.43.29l.71.16,6.12,1.5a7.66,7.66,0,0,0,1.62.1,7.4,7.4,0,0,1,1.7.11,1.08,1.08,0,0,1,.73.88,1.86,1.86,0,0,1-.12,1.39,1.26,1.26,0,0,1-.91.79,2.25,2.25,0,0,1-.94,0A1.56,1.56,0,0,1,375.61,450.06Zm-3.51-21.61-3.3,15.18-.22-.14a2.07,2.07,0,0,1,.06-.7c.07-.46.18-1,.34-1.75s.35-1.51.57-2.39.44-1.8.68-2.75C370.77,433.7,371.39,431.21,372.1,428.45Zm4.53,22.38a2.14,2.14,0,0,0,.8.07,1.46,1.46,0,0,0,.48-.27l.48-.45a2.32,2.32,0,0,0,.5-.65,2.56,2.56,0,0,1-.85,1.36,1.62,1.62,0,0,1-.8.26,2.09,2.09,0,0,1-1-.5A.89.89,0,0,0,376.63,450.83Zm14.67,1.23a8,8,0,0,1-1.55-1.51,12.84,12.84,0,0,1-1-1.36,3.42,3.42,0,0,1-.16-1.4,18.8,18.8,0,0,1,.24-2.45c.14-.93.32-1.88.55-2.87s.45-1.9.66-2.77.41-1.66.58-2.36.29-1.17.34-1.39a7.4,7.4,0,0,0,.21-2.18,2.11,2.11,0,0,1,.25-1.43,2.19,2.19,0,0,1,1-.6,3.38,3.38,0,0,1,1-.21c.51,0,.83.49,1,1.36a1.38,1.38,0,0,1-.3,1.14l-.57.81a5.65,5.65,0,0,0-.4,1.28c-.19.76-.4,1.63-.63,2.59s-.46,1.89-.65,2.78-.32,1.49-.39,1.79a7.3,7.3,0,0,0-.22,1.59c0,.48,0,.91-.05,1.28s0,.62-.09.71a1.1,1.1,0,0,0-.24.25c0,.11-.05.24-.07.41a1.17,1.17,0,0,0,.19.7c.21.31.4.61.57.92s.35.43.53.39.21,0,.19.11.08.22.28.47a1.1,1.1,0,0,1,.18.39c0,.12.12.25.32.39a2.59,2.59,0,0,0,.95.32c.45.08,1.12.16,2,.23a3.51,3.51,0,0,0,2.19-.47,4,4,0,0,0,1.31-1.43,8.79,8.79,0,0,0,.75-1.94c.19-.7.36-1.35.5-2a14.51,14.51,0,0,0,.67-2.43c.23-1.12.47-2.26.71-3.41s.48-2.18.73-3.08a4.83,4.83,0,0,1,.61-1.6,2.74,2.74,0,0,1,1-.71,1.56,1.56,0,0,1,.83-.14c.18.08.32.44.41,1.08a3.46,3.46,0,0,1,0,1.4,7.34,7.34,0,0,0-.7,1.44,18.24,18.24,0,0,1-.76,1.66l-.41,1.69c-.23.91-.46,1.87-.71,2.87s-.47,1.93-.68,2.77-.32,1.29-.33,1.35,0,.47,0,1a7.57,7.57,0,0,1-.2,1.55,2.8,2.8,0,0,1-1.67,1.33,17.57,17.57,0,0,1-4.22,1,6,6,0,0,1-2.6-.23A7.42,7.42,0,0,1,391.3,452.06Zm5.54,3.05a12.25,12.25,0,0,1-3.36-.05,11.65,11.65,0,0,0,1.66-.07l1.75-.15a12.69,12.69,0,0,0,2.15-.4,4.91,4.91,0,0,0,1.8-.9,7.31,7.31,0,0,0,1.22-1.28,6.13,6.13,0,0,0,.73-1.29,3.46,3.46,0,0,1,.43-.87c0-.05.07-.3.2-.73l.44-1.55c.18-.61.36-1.3.55-2.07l.59-2.38,1.53-6.24q-.67,3.47-1.41,6.44c-.41,1.66-.84,3.33-1.32,5a17,17,0,0,1-1.38,3.7,5.73,5.73,0,0,1-2.63,2.08A12.67,12.67,0,0,1,396.84,455.11Zm15.62,2.65a1.31,1.31,0,0,1-.41-.8,2.21,2.21,0,0,1,.06-.65c.08-.33.18-.84.31-1.53s.22-1.15.28-1.4.11-.62.24-1.45.29-1.77.46-2.83.37-2.07.6-3.05a18.69,18.69,0,0,1,.58-2.1,9.83,9.83,0,0,0,.88-1.71c.09-.31.18-.67.28-1.07l.12-.47a1.51,1.51,0,0,1,.2-.49,1.89,1.89,0,0,1,.23-.55,1.16,1.16,0,0,1,.87-.67,2.52,2.52,0,0,1,1.19,0c.38.09,1,.25,1.74.49a4.52,4.52,0,0,0,1.7.27,5.66,5.66,0,0,1,.93.2,7.54,7.54,0,0,1,1.39.58,8.13,8.13,0,0,1,1.44,1,4.52,4.52,0,0,1,1.09,1.37,6.66,6.66,0,0,1,.62,2.34,25,25,0,0,1,.16,3.45,19.63,19.63,0,0,1-.41,3.73,8.16,8.16,0,0,1-1.19,3,14,14,0,0,1-3.76,3.76c-1.39.92-3.23,1.09-5.51.53a11.46,11.46,0,0,1-2.77-1A6.48,6.48,0,0,1,412.46,457.76Zm11.35,1.94a6.74,6.74,0,0,1-2.75,1.32,8.47,8.47,0,0,1-4.89-.47l.93.23a3.88,3.88,0,0,0,1.49.1,7.83,7.83,0,0,0,2.29-.26,10.78,10.78,0,0,0,4-2.16,6.87,6.87,0,0,0,2-2.58,27.87,27.87,0,0,0,1.31-3.27,33,33,0,0,0,.78-3.91,18.72,18.72,0,0,1-1.27,6A11.42,11.42,0,0,1,423.81,459.7ZM450,467.78a1.45,1.45,0,0,1-.94.74,2,2,0,0,1-1.1.19,6.2,6.2,0,0,1-.64-.22l-.91-.4c-.35-.16-.69-.32-1-.49a3.84,3.84,0,0,0-.68-.29l-1.37-.34-2.61-.64-2.56-.65-1.36-.36a1.24,1.24,0,0,1-.57-.83,2,2,0,0,1-.11-.81s.05-.32.14-.89.17-1.2.26-1.88.2-1.34.32-2,.19-1.06.24-1.28a8.87,8.87,0,0,1,.55-1.53c.25-.53.43-.89.53-1.1a2,2,0,0,0,.24-.76c.06-.39.13-.81.19-1.25s.13-.91.2-1.4a11.33,11.33,0,0,1,.2-1.18c.07-.3.19-.71.35-1.24s.34-1.06.55-1.63a10.63,10.63,0,0,1,.67-1.5,1.7,1.7,0,0,1,.69-.78,3.63,3.63,0,0,1,1.18.12c.58.11,1.2.26,1.88.46l1.87.54,1.15.33c.19,0,.48.1.85.16a10.56,10.56,0,0,0,1.11.15l1.06.09a3,3,0,0,0,.78,0,2.6,2.6,0,0,1,1-.08,1.32,1.32,0,0,1,.85.27,1.72,1.72,0,0,1,.54,1,1.94,1.94,0,0,1,0,1.21,2.76,2.76,0,0,1-.55.75,1.14,1.14,0,0,1-1.07.23,4,4,0,0,1-1.41-.35,9.39,9.39,0,0,0-1.25-.43c-.19-.05-.68-.16-1.48-.32l-2.55-.54c-1.08-.18-2.25-.41-3.5-.69a4.19,4.19,0,0,0-.36,1.1c-.14.58-.3,1.22-.47,1.89l-.65,2.65a3.11,3.11,0,0,0,.8.11,6.82,6.82,0,0,1,.76.15,1.46,1.46,0,0,0,.62,0,4.39,4.39,0,0,1,.62.22l.87.34a7.54,7.54,0,0,0,.92.29l.67.17a8.45,8.45,0,0,0,1.19-.08,2.3,2.3,0,0,1,1.19.1,5.19,5.19,0,0,0,.8.6c.32.21.37.58.16,1.1a5.3,5.3,0,0,1-.52,1.22c-.19.3-.57.4-1.15.32a2.19,2.19,0,0,1-1-.19c-.15-.11-.31-.25-.51-.41a2.89,2.89,0,0,0-.81-.28l-1.28-.32c-.47-.11-.9-.21-1.32-.28l-.74-.14a1.06,1.06,0,0,1-.79-.15.68.68,0,0,0-.67-.08c-.11,0-.25.19-.39.55s-.3.77-.45,1.21a10.66,10.66,0,0,0-.37,1.34,1.87,1.87,0,0,0-.09.78,2.62,2.62,0,0,1,0,.84c-.05.26-.08.43-.1.51a3.21,3.21,0,0,1-.33.63c-.2.32-.21.55,0,.71s.43.25.91.24a4.68,4.68,0,0,1,1,.06c.16,0,.51.16,1,.35s1.11.4,1.74.64l1.81.66a3.08,3.08,0,0,0,1.21.25,8.83,8.83,0,0,0,2-.06,2.94,2.94,0,0,1,1.75.12,1,1,0,0,1,.49,1.09A8.08,8.08,0,0,1,450,467.78Zm-1.41-12.71-.95-1.05a2,2,0,0,1,.44.32A2.23,2.23,0,0,1,448.59,455.07Zm-5.67-2.95a.61.61,0,0,0,.43.63l.89.39a4.55,4.55,0,0,0,.8.28l.3.08a4.2,4.2,0,0,1-.76-.15,10.76,10.76,0,0,0-1.4-.21c-.55-.11-1.19-.25-1.92-.43a1.59,1.59,0,0,1,.25-.33,3.3,3.3,0,0,0,.22-.72l.34-1.39a8.51,8.51,0,0,1,.36-1.08l3.87.95c-.51,0-1-.06-1.37-.07a4.32,4.32,0,0,1-1,0,1,1,0,0,0-.59,0c-.19.05-.32.28-.39.71A5.38,5.38,0,0,0,442.92,452.12Zm1.17,6.47-.35-.06c-.26,0-.58-.09-1-.13s-.73-.08-1-.13l-.48-.08h.2a5.46,5.46,0,0,1,.88,0l1.07.11A1.06,1.06,0,0,1,444.09,458.59Zm-3.72.8c0,.37-.09.82-.13,1.33s-.14.77-.16.91,0,0,0,0l-.51,0c.14-.65.25-1.29.34-1.9s.15-1,.22-1.44.14-.71.17-.84c0,.3.07.59.09.88A4.78,4.78,0,0,1,440.37,459.39Zm21.05,10.4A1.26,1.26,0,0,1,461,469a2.27,2.27,0,0,1,.05-.66c.08-.33.18-.84.31-1.52s.22-1.16.28-1.41.11-.61.25-1.45.28-1.77.45-2.82.38-2.07.61-3.05a16.5,16.5,0,0,1,.58-2.11,9.54,9.54,0,0,0,.87-1.71c.09-.31.19-.67.29-1.07,0-.11.06-.27.11-.47a1.31,1.31,0,0,1,.21-.49,2.34,2.34,0,0,1,.22-.55,1.18,1.18,0,0,1,.88-.67,2.47,2.47,0,0,1,1.18,0c.38.09,1,.26,1.74.49a4.59,4.59,0,0,0,1.71.27,6.76,6.76,0,0,1,2.31.78,8.59,8.59,0,0,1,1.45,1,4.72,4.72,0,0,1,1.09,1.38,6.63,6.63,0,0,1,.61,2.33,24.9,24.9,0,0,1,.17,3.45,19.64,19.64,0,0,1-.42,3.73,8.16,8.16,0,0,1-1.19,3A13.89,13.89,0,0,1,471,471.2c-1.39.91-3.22,1.08-5.51.52a11.36,11.36,0,0,1-2.76-1A5.64,5.64,0,0,1,461.42,469.79Zm11.34,1.94a6.71,6.71,0,0,1-2.74,1.32,8.52,8.52,0,0,1-4.9-.47l.94.23a4.05,4.05,0,0,0,1.48.11,8.61,8.61,0,0,0,2.29-.26,11,11,0,0,0,4-2.17,7.08,7.08,0,0,0,2-2.58,27.11,27.11,0,0,0,1.3-3.27,31.08,31.08,0,0,0,.79-3.91,19,19,0,0,1-1.27,6A11.39,11.39,0,0,1,472.76,471.73Z" transform="translate(-70 -180.78)"/><path class="cls-6" d="M106.12,250c-5.2-4.73-10.52-8.62-17.33-10.29a33.38,33.38,0,0,0-13.43-.42,6,6,0,0,0-4.52,2.7,5.5,5.5,0,0,0,1.9,7.66c3.93,2.55,7.88,5.07,11.83,7.6a13,13,0,0,0,5.15,1.88l1,.13h0c3.36.62,18.91-5.84,18.91-5.84A32.68,32.68,0,0,0,106.12,250Z" transform="translate(-70 -180.78)"/><path class="cls-6" d="M108.91,249.52a.29.29,0,0,0,.18,0,.28.28,0,0,0,.24-.32c-.07-.5-.19-1-.31-1.57-.54-2.45-1.22-5.49,1.39-9a.29.29,0,0,0-.46-.34c-2.76,3.7-2,6.88-1.48,9.44.12.54.23,1.06.3,1.53A.29.29,0,0,0,108.91,249.52Z" transform="translate(-70 -180.78)"/><path class="cls-7" d="M101.69,255.62c-4.89-.64-9.52-.75-14.12,1a23.48,23.48,0,0,0-7.91,5.14,4.24,4.24,0,0,0-1.52,3.38,3.87,3.87,0,0,0,4.18,3.65c3.29-.11,6.57-.24,9.86-.37a9,9,0,0,0,3.73-1l.61-.31h0c2.18-1,8.56-11,8.56-11A23.07,23.07,0,0,0,101.69,255.62Z" transform="translate(-70 -180.78)"/><path class="cls-8" d="M112,249.12a4.14,4.14,0,0,0-6,4.63,17.32,17.32,0,0,0-5.83,6.55c-2.89,5.25-3.27,10.59-.85,11.92s6.72-1.85,9.61-7.1a17.34,17.34,0,0,0,2.41-8.43,4.14,4.14,0,0,0,.68-7.57Z" transform="translate(-70 -180.78)"/><path class="cls-6" d="M545.32,353.48c6.85-1.57,13.39-2.36,20.15-.47a33.46,33.46,0,0,1,11.91,6.21A6,6,0,0,1,580,363.8a5.5,5.5,0,0,1-5.42,5.74q-7,.43-14,.83a12.83,12.83,0,0,1-5.41-.9l-.92-.35s3.23,1.11,0,0-13.63-14.36-13.63-14.36A34,34,0,0,1,545.32,353.48Z" transform="translate(-70 -180.78)"/><path class="cls-6" d="M543.11,351.7a.27.27,0,0,1-.17-.06.28.28,0,0,1-.05-.39c.31-.4.67-.8,1.05-1.22,1.67-1.87,3.75-4.19,3.19-8.51a.28.28,0,0,1,.24-.32.29.29,0,0,1,.32.24c.59,4.59-1.58,7-3.33,9-.37.41-.72.8-1,1.18A.27.27,0,0,1,543.11,351.7Z" transform="translate(-70 -180.78)"/><path class="cls-7" d="M546.42,360.56c4.57,1.84,8.67,4,11.8,7.81a23.47,23.47,0,0,1,4.37,8.37,4.21,4.21,0,0,1-.33,3.69,3.86,3.86,0,0,1-5.42,1.13q-4.23-2.56-8.42-5.15a9.08,9.08,0,0,1-2.76-2.69l-.39-.58s1.42,1.94,0,0-2.08-13.75-2.08-13.75A24.16,24.16,0,0,1,546.42,360.56Z" transform="translate(-70 -180.78)"/><path class="cls-8" d="M540.65,349.86a4.16,4.16,0,0,1,4.12,4.2,4.12,4.12,0,0,1-1.14,2.79,17.32,17.32,0,0,1,1.87,8.57c0,6-2.34,10.83-5.1,10.81s-4.95-4.91-4.9-10.91a17.43,17.43,0,0,1,2-8.53,4.09,4.09,0,0,1-1.09-2.81A4.16,4.16,0,0,1,540.65,349.86Z" transform="translate(-70 -180.78)"/><path class="cls-6" d="M356,207.55c5.86,3.88,10.94,8.08,14.23,14.27a33.37,33.37,0,0,1,3.7,12.92,6,6,0,0,1-1.51,5,5.5,5.5,0,0,1-7.89,0c-3.44-3.18-6.85-6.39-10.27-9.6a12.71,12.71,0,0,1-3.08-4.54c-.12-.26-.22-.53-.37-.91,0,0,1.41,3.11,0,0s1-19.77,1-19.77A32.74,32.74,0,0,1,356,207.55Z" transform="translate(-70 -180.78)"/><path class="cls-6" d="M349.58,200.67c-3.46-6.11-7.3-11.47-13.26-15.18a33.23,33.23,0,0,0-12.63-4.58,6,6,0,0,0-5.14,1.16,5.49,5.49,0,0,0-.57,7.86q4.41,5.48,8.86,10.91a12.74,12.74,0,0,0,4.32,3.39l.88.43s-3-1.62,0,0,19.79.35,19.79.35A33,33,0,0,0,349.58,200.67Z" transform="translate(-70 -180.78)"/><path class="cls-6" d="M352.38,201.1a.3.3,0,0,0,.16.08.28.28,0,0,0,.33-.23c.09-.49.14-1,.19-1.59.25-2.49.55-5.59,4.12-8.1a.28.28,0,0,0-.32-.47c-3.78,2.66-4.1,5.91-4.36,8.51-.05.56-.11,1.08-.19,1.55A.28.28,0,0,0,352.38,201.1Z" transform="translate(-70 -180.78)"/><path class="cls-6" d="M355.45,204.11a.22.22,0,0,0,.13.08c4.46,1.21,7.16-.63,9.33-2.1.46-.31.89-.6,1.31-.84a.29.29,0,0,0,.1-.39.28.28,0,0,0-.38-.11c-.44.25-.88.56-1.35.87-2.07,1.41-4.65,3.16-8.86,2a.29.29,0,0,0-.35.2A.27.27,0,0,0,355.45,204.11Z" transform="translate(-70 -180.78)"/><path class="cls-7" d="M351.63,213.22c1.82,4.59,3.06,9.05,2.47,13.94a23.47,23.47,0,0,1-3.05,8.93,4.25,4.25,0,0,1-2.9,2.31,3.87,3.87,0,0,1-4.56-3.15q-1.05-4.83-2.07-9.66a9.09,9.09,0,0,1,.05-3.85c0-.2.09-.4.15-.68,0,0-.43,2.36,0,0s8.52-11,8.52-11A24.28,24.28,0,0,1,351.63,213.22Z" transform="translate(-70 -180.78)"/><path class="cls-7" d="M343.62,204.64c-4.45-2.13-8.82-3.68-13.73-3.43a23.47,23.47,0,0,0-9.13,2.43,4.17,4.17,0,0,0-2.49,2.74,3.85,3.85,0,0,0,2.82,4.76q4.74,1.38,9.49,2.73a9.1,9.1,0,0,0,3.85.22l.68-.11s-2.38.27,0,0,11.55-7.75,11.55-7.75A23.71,23.71,0,0,0,343.62,204.64Z" transform="translate(-70 -180.78)"/><path class="cls-8" d="M355.4,201.67a4.15,4.15,0,0,0-7.17,2.52,17.34,17.34,0,0,0-7.58,4.41c-4.38,4.09-6.41,9-4.52,11.06s7,.34,11.35-3.75a17.39,17.39,0,0,0,4.92-7.26,4.14,4.14,0,0,0,3-7Z" transform="translate(-70 -180.78)"/></svg>