<svg version="1" xmlns="http://www.w3.org/2000/svg" width="426.667" height="426.667" viewBox="0 0 320.000000 320.000000"><path d="M55.9 34.3c-5.7 2.1-9.7 5.4-12.6 10.5-2.3 3.9-2.8 5.9-2.7 11.2 0 4.3.6 7.7 1.8 10 1.6 3 16.3 21.6 36.7 46.4l5.7 7-8.1 2.1c-9.1 2.5-16.9 5.4-21.5 8.2-11.6 7.1-11.4 22.8.3 28.6 3 1.4 40.2 12.4 46 13.5 5.2 1 15.1.4 18.8-1.1l3.5-1.5-2.4 6c-4.5 10.8-3.2 18.8 3.4 22.2 4 2 13.8 1.4 19-1.3l4.1-2.1-2.1 4.7c-3.5 8-3 17.4 2.5 42.1 6.4 28.9 7.5 30.8 18.9 32.6 9.6 1.6 18-7.9 24.6-27.7l2.9-8.5 4.9 4.6c2.7 2.5 8.5 7.9 13 12.1 31.8 30 34.7 32.1 43.4 32 8.7 0 16.9-4.8 20.6-11.9 2.3-4.6 2.8-18.8.8-29-7.7-40.6-28.1-69.8-67.1-96.1-4-2.7-7.3-5.1-7.3-5.3 0-.2.9-2.3 1.9-4.6 1.1-2.4 1.7-4.9 1.4-5.6-.4-1.1 1-1.3 6.2-1.1 4.8.3 8.5-.3 13-1.8 7.3-2.4 23.8-12.8 21.2-13.3-1-.2-5.2 1.9-9.5 4.6-8.8 5.6-12.7 7.2-19.6 7.9-8.1.8-10.9-.2-12.7-4.6-1.7-3.9-8.8-10.1-11.7-10.1-1.2 0-1.3-1.2-.8-6.6 1.2-12.6 6.8-24.3 13.8-29.1 3.2-2.1 4.4-4.3 2.3-4.3-2.1 0-11 9.2-13.4 13.8-2.3 4.5-4.8 14.2-5.4 21.2-.3 4-.7 4.5-3.3 5.1-1.6.3-3.9 1.1-5.2 1.8-2 1.1-2.4.8-5-3.4-23.1-38.8-43.9-58.7-74.3-70.9-8.3-3.4-22.3-7.4-28.4-8.2-9.4-1.3-14.3-1.3-17.6-.1z"/></svg>